<svg width="42" height="42" viewBox="0 0 42 42" fill="none" xmlns="http://www.w3.org/2000/svg">
<g clip-path="url(#clip0_23_3486)">
<path d="M13.5721 35.7094C14.2751 34.737 14.9122 33.7084 15.4648 32.6234C19.0875 33.5349 22.8002 33.5388 26.4044 32.6331L26.4078 32.6397C26.9854 33.7407 27.6335 34.7842 28.3328 35.7704L28.6131 36.1658L29.0729 36.3191L29.0741 36.3195C29.0881 36.3243 29.2208 36.3706 29.3745 36.3962C29.5547 36.4263 29.8286 36.4421 30.1389 36.344C33.1937 35.4019 36.2719 33.9791 39.4602 31.6492C39.9055 31.3563 40.1244 30.8898 40.1596 30.4583C40.9395 22.3842 38.8418 15.3589 34.6317 9.1592L34.5528 9.0431L34.4536 8.94386C34.4524 8.9427 34.4508 8.94103 34.4487 8.93889C34.409 8.89795 34.2013 8.68415 33.8501 8.56186C31.4962 7.47695 28.9584 6.69051 26.322 6.23352L26.1859 6.20993L26.0478 6.2119C25.612 6.2181 25.1963 6.39625 24.8913 6.70753L24.7473 6.85447L24.6488 7.03508C24.4908 7.3248 24.3205 7.65572 24.1575 7.98937C22.034 7.75303 19.8908 7.753 17.7672 7.98929C17.5988 7.65097 17.4207 7.31749 17.2508 7.02148C17.0186 6.60333 16.6618 6.4109 16.4608 6.3305C16.2323 6.23911 16.0141 6.21175 15.8381 6.21175H15.7106L15.585 6.23352C12.9303 6.69366 10.3962 7.48716 8.01874 8.57972C7.83247 8.65255 7.70692 8.74361 7.65466 8.78281C7.59066 8.83081 7.5428 8.87442 7.51751 8.89813C7.49279 8.92131 7.47146 8.94282 7.47043 8.94386L7.36726 9.04702L7.2862 9.16831C2.45927 16.391 1.10837 23.4699 1.7641 30.4548C1.7984 30.8872 2.01726 31.3555 2.46375 31.6492C5.65455 33.9809 8.73443 35.4038 11.7735 36.3457L11.7735 36.3456C12.2385 36.4876 13.0982 36.4608 13.5721 35.7094ZM16.7736 22.644L16.7735 22.644V22.6567C16.7735 23.9983 15.8483 24.7837 15.038 24.7837C14.2523 24.7837 13.3026 23.9876 13.3026 22.6567C13.3026 21.3152 14.2278 20.5297 15.038 20.5297C15.8667 20.5297 16.7849 21.3317 16.7736 22.644ZM28.6385 22.644H28.6385V22.6567C28.6385 24.0037 27.7255 24.7837 26.903 24.7837C26.1172 24.7837 25.1675 23.9876 25.1675 22.6567C25.1675 21.3152 26.0927 20.5297 26.903 20.5297C27.7317 20.5297 28.6498 21.3317 28.6385 22.644Z" fill="#F6F6F6" stroke="black" stroke-width="2.96372"/>
</g>
<defs>
<clipPath id="clip0_23_3486">
<rect width="40.855" height="40.855" fill="white" transform="translate(0.534424 0.884521)"/>
</clipPath>
</defs>
</svg>
