<svg width="19" height="19" viewBox="0 0 19 19" fill="none" xmlns="http://www.w3.org/2000/svg">
<path d="M9.42058 0.594238C4.68388 0.594238 0.831055 4.44706 0.831055 9.18377C0.831055 13.9205 4.68388 17.7733 9.42058 17.7733C14.1573 17.7733 18.0101 13.9205 18.0101 9.18377C18.0101 4.44706 14.1573 0.594238 9.42058 0.594238ZM14.0638 7.87481C13.9593 6.77749 13.709 5.70091 13.3211 4.67317C13.6626 4.96859 13.9708 5.30289 14.2391 5.6705C14.721 6.33088 15.0612 7.08138 15.2409 7.87481H14.0638ZM9.42058 3.21214C9.47604 3.21214 9.52916 3.2143 9.58536 3.21759C10.3053 4.21316 11.1813 5.81331 11.4272 7.87481H7.55845C7.7363 6.14781 8.32758 4.54154 9.26672 3.21711C9.31884 3.21412 9.36827 3.21214 9.42058 3.21214ZM4.93164 7.87481H3.60019C3.7817 7.07276 4.12721 6.31465 4.61723 5.64916C4.91396 5.24618 5.25885 4.88371 5.64287 4.56911C5.26616 5.61823 5.02645 6.73051 4.93164 7.87481ZM4.94491 10.4927C5.04481 11.666 5.26369 12.7602 5.5989 13.7607C5.22321 13.4469 4.88601 13.087 4.59588 12.688C4.11729 12.0298 3.77928 11.2825 3.60033 10.4927H4.94491ZM9.42058 15.1554C9.35602 15.1554 9.29448 15.1527 9.22862 15.1488C8.33891 13.9927 7.76313 12.421 7.5691 10.4927H11.4212C11.2001 12.3385 10.5699 13.9371 9.61544 15.1486C9.54848 15.1527 9.48556 15.1554 9.42058 15.1554ZM14.0488 10.4927H15.2404C15.0638 11.2745 14.7311 12.0148 14.2602 12.6682C13.9959 13.0349 13.6919 13.369 13.3548 13.6649C13.7049 12.6768 13.9389 11.6122 14.0488 10.4927Z" fill="white" stroke="black"/>
</svg>
