<svg width="43" height="36" viewBox="0 0 43 36" fill="none" xmlns="http://www.w3.org/2000/svg">
<mask id="path-1-outside-1_23_3490" maskUnits="userSpaceOnUse" x="0.474731" y="0.757568" width="43" height="36" fill="black">
<rect fill="white" x="0.474731" y="0.757568" width="43" height="36"/>
<path d="M25.0421 16.0847L36.031 3.75757H33.4279L23.8823 14.4589L16.2638 3.75757H7.47473L18.9978 19.9413L7.47473 32.8667H10.0778L20.1518 21.5633L28.1991 32.8667H36.9882M11.0173 5.65196H15.0164L33.4259 31.0653H29.4259"/>
</mask>
<path d="M25.0421 16.0847L36.031 3.75757H33.4279L23.8823 14.4589L16.2638 3.75757H7.47473L18.9978 19.9413L7.47473 32.8667H10.0778L20.1518 21.5633L28.1991 32.8667H36.9882M11.0173 5.65196H15.0164L33.4259 31.0653H29.4259" fill="#F6F6F6"/>
<path d="M36.031 3.75757L38.2433 5.7297L42.6433 0.793851H36.031V3.75757ZM33.4279 3.75757V0.793851H32.1001L31.2162 1.78473L33.4279 3.75757ZM23.8823 14.4589L21.4679 16.1777L23.6218 19.2032L26.0939 16.4317L23.8823 14.4589ZM16.2638 3.75757L18.6782 2.03873L17.792 0.793851H16.2638V3.75757ZM7.47473 3.75757V0.793851H1.72632L5.06046 5.47656L7.47473 3.75757ZM18.9978 19.9413L21.21 21.9136L22.7835 20.1486L21.412 18.2224L18.9978 19.9413ZM7.47473 32.8667L5.2625 30.8944L0.862062 35.8304H7.47473V32.8667ZM10.0778 32.8667V35.8304H11.4064L12.2904 34.8385L10.0778 32.8667ZM20.1518 21.5633L22.5661 19.8444L20.4113 16.8177L17.9392 19.5914L20.1518 21.5633ZM28.1991 32.8667L25.7847 34.5855L26.671 35.8304H28.1991V32.8667ZM15.0164 5.65196L17.4165 3.9133L16.5291 2.68824H15.0164V5.65196ZM33.4259 31.0653V34.0291H39.2325L35.8261 29.3267L33.4259 31.0653ZM27.2544 18.0568L38.2433 5.7297L33.8187 1.78544L22.8298 14.1126L27.2544 18.0568ZM36.031 0.793851H33.4279V6.72129H36.031V0.793851ZM31.2162 1.78473L21.6706 12.486L26.0939 16.4317L35.6396 5.73041L31.2162 1.78473ZM26.2966 12.74L18.6782 2.03873L13.8495 5.4764L21.4679 16.1777L26.2966 12.74ZM16.2638 0.793851H7.47473V6.72129H16.2638V0.793851ZM5.06046 5.47656L16.5835 21.6603L21.412 18.2224L9.889 2.03858L5.06046 5.47656ZM16.7855 17.9691L5.2625 30.8944L9.68696 34.8389L21.21 21.9136L16.7855 17.9691ZM7.47473 35.8304H10.0778V29.9029H7.47473V35.8304ZM12.2904 34.8385L22.3643 23.5352L17.9392 19.5914L7.86529 30.8948L12.2904 34.8385ZM17.7374 23.2822L25.7847 34.5855L30.6134 31.1478L22.5661 19.8444L17.7374 23.2822ZM28.1991 35.8304H36.9882V29.9029H28.1991V35.8304ZM11.0173 8.61568H15.0164V2.68824H11.0173V8.61568ZM12.6163 7.39063L31.0258 32.804L35.8261 29.3267L17.4165 3.9133L12.6163 7.39063ZM33.4259 28.1016H29.4259V34.0291H33.4259V28.1016Z" fill="black" mask="url(#path-1-outside-1_23_3490)"/>
</svg>
